{"title":"Himmatwala (2013) Hindi DVDScr XviD - Exclusive","uid":8318131,"size":746392480,"categoryP":"video","categoryS":"movies","magnet":"?xt=urn:btih:180bd4e5dc7b9592232ea162292c263e40c2406a&amp;dn=Himmatwala+%282013%29+Hindi+DVDScr+XviD+-+Exclusive&amp;tr=udp%3A%2F%2Ftracker.openbittorrent.com%3A80&amp;tr=udp%3A%2F%2Fopen.demonii.com%3A1337&amp;tr=udp%3A%2F%2Ftracker.coppersurfer.tk%3A6969&amp;tr=udp%3A%2F%2Fexodus.desync.com%3A6969","seeders":1,"leechers":0,"uploader":"tykoon123","files":-1,"time":1364638303,"description":" &lt;a href=&quot;http://imgr.us/images/2qzfo39ztoux5bj6uza6.jpg&quot; rel=&quot;nofollow&quot; target=&quot;_NEW&quot;&gt;http://imgr.us/images/2qzfo39ztoux5bj6uza6.jpg&lt;/a&gt;\n\nInfo:\n\nFormat : AVI\nFormat/Info : Audio Video Interleave\nFile size : 712 MiB\nDuration : 2h 13mn\nOverall bit rate : 743 Kbps\n\n\n\nVideo\nID : 0\nFormat : MPEG-4 Visual\nFormat profile : Advanced Simple@L5\nFormat settings, BVOP : 1\nFormat settings, QPel : No\nFormat settings, GMC : No warppoints\nFormat settings, Matrix : Default (H.263)\nCodec ID : XVID\nCodec ID/Hint : XviD\nDuration : 2h 13mn\nBit rate : 657 Kbps\nWidth : 608 pixels\nHeight : 256 pixels\nDisplay aspect ratio : 2.40:1\nFrame rate : 25.000 fps\nColor space : YUV\nChroma subsampling : 4:2:0\nBit depth : 8 bits\nScan type : Progressive\nCompression mode : Lossy\nBits/(Pixel*Frame) : 0.169\nStream size : 629 MiB (88%)\nWriting library : XviD 1.2.1 (UTC 2008-12-04)\n\n\n\nAudio\nID : 1\nFormat : MPEG Audio\nFormat version : Version 1\nFormat profile : Layer 3\nMode : Joint stereo\nMode extension : MS Stereo\nCodec ID : 55\nCodec ID/Hint : MP3\nDuration : 2h 13mn\nBit rate mode : Constant\nBit rate : 80.0 Kbps\nChannel(s) : 2 channels\nSampling rate : 32.0 KHz\nCompression mode : Lossy\nStream size : 76.6 MiB (11%)\nAlignment : Aligned on interleaves\nInterleave, duration : 160 ms (4.00 video frames)\nInterleave, preload duration : 216 ms\nTitle : HIMMATWALA (2013).avi_track_1_\nWriting library : LAME3.99r\nEncoding settings : -m j -V 4 -q 2 -lowpass 13.5 -b 80\n\nScreens: &lt;a href=&quot;\nhttp://imgr.us/images/932prj5dzjr85wbl8mdf.png&quot; rel=&quot;nofollow&quot; target=&quot;_NEW&quot;&gt;\nhttp://imgr.us/images/932prj5dzjr85wbl8mdf.png&lt;/a&gt; &lt;a href=&quot;\nhttp://imgr.us/images/m4ez1q4llxrmjow5ijuj.png&quot; rel=&quot;nofollow&quot; target=&quot;_NEW&quot;&gt;\nhttp://imgr.us/images/m4ez1q4llxrmjow5ijuj.png&lt;/a&gt; &lt;a href=&quot;\nhttp://imgr.us/images/pk8xcaaxyoc98xq8xsc8.png&quot; rel=&quot;nofollow&quot; target=&quot;_NEW&quot;&gt;\nhttp://imgr.us/images/pk8xcaaxyoc98xq8xsc8.png&lt;/a&gt; &lt;a href=&quot;\nhttp://imgr.us/images/42zk7af77f86kgv4bvhi.png&quot; rel=&quot;nofollow&quot; target=&quot;_NEW&quot;&gt;\nhttp://imgr.us/images/42zk7af77f86kgv4bvhi.png&lt;/a&gt;\n\n\n\n\n","torrent":{"xt":"urn:btih:180bd4e5dc7b9592232ea162292c263e40c2406a","amp;dn":"Himmatwala+%282013%29+Hindi+DVDScr+XviD+-+Exclusive","amp;tr":["udp%3A%2F%2Ftracker.openbittorrent.com%3A80","udp%3A%2F%2Fopen.demonii.com%3A1337","udp%3A%2F%2Ftracker.coppersurfer.tk%3A6969","udp%3A%2F%2Fexodus.desync.com%3A6969"],"infoHash":"180bd4e5dc7b9592232ea162292c263e40c2406a","infoHashBuffer":{"type":"Buffer","data":[24,11,212,229,220,123,149,146,35,46,161,98,41,44,38,62,64,194,64,106]},"announce":[],"urlList":[]}}